<?xml version="1.0" encoding="UTF-8"?><svg id="a" xmlns="http://www.w3.org/2000/svg" viewBox="0 0 755.58 457.61"><defs><style>.b{fill:#ba0c0b;}.c{fill:#fdf7f3;}.d{fill:#fff;}</style></defs><path class="d" d="M154.76,51.34l112.41-3.57,50.36-3.86h56.31l-176.99,266.43-113.98,53.38,2.84-46.84s37.63-81.53,47.61-97.71c5.1-8.26,40.36-62.8,52.79-65.01s31-50.24,31-50.24c0,0,15.1-14.64,3.5-5.67-11.61,8.97-80.22,11.81-80.22,11.81l14.37-58.71Z"/><path class="b" d="M450.16,238.25c1.01,1.07,2.1.59,3.29.38,4.93-.89,11.86-3.24,16.82-4.78,26.6-8.27,65.62-23.74,72.5-54.28,3.33-14.75-1.9-25.57-10.92-36.73,1.24-.21,1.91.09,2.96.63.64.33,6.71,5.44,7.51,6.22,31.27,30.48-2.07,72-30.07,89.86,1.2.09,2.36-.35,3.45-.79,6.85-2.73,16.11-8.19,22.24-12.4,19.57-13.42,31.18-35.51,23.97-59.34.91-.93,4.39,4.27,4.67,4.79,16.61,30.04,2.51,63.87-21,85.07-53.22,47.99-165.59,52.14-234.32,54.53-77.51,2.7-147.96-1.46-215.25,43.54-4.28,2.86-8.35,7.28-13.13,8.76,9.37-12.27,19.76-23.04,32.47-31.9,23.62-16.45,52.73-26.51,81.24-30.19.09-1.53.22-1.15-.97-1.31-4.55-.58-13.53-.29-18.34-.03-7.59.42-17,2.07-24.51,3.59-17.01,3.44-33.64,9.4-48.32,18.66,21.99-64.27,61.74-120.63,106.5-170.91l1.33.02c0,1-10.13,13.93-11.77,16.16-7.62,10.41-15.98,21.85-22.76,32.97-7.08,11.61-12.75,24.15-19.72,35.83-.14.44.62.47.97.32,2.54-1.15,12.66-15.9,15.38-19.26,25.31-31.13,53.82-60.7,82.64-88.6,22.11-21.41,46.33-40.95,65.68-65-8.98-2.39-18.51-1.92-27.76-2.29-27.38-1.11-54.99-.8-82.32.69l-6.89-.67c13.1-1.53,26.33-3.14,39.51-3.95,19.99-1.24,40.79-2.14,60.78-2.61,13.39-.32,26.83.29,40.22.03.78.69-4.47,5.5-5.22,6.21-12.88,12.3-27.42,23.69-40.54,35.93-25.09,23.41-48.08,48.66-69.9,75.18-1.74,2.12-11.37,13.72-11.77,15.03-.1.34-.18,1.07.31.96,3.2-3.33,6.62-6.45,9.83-9.78,12.14-12.62,21.51-22.43,34.94-34-1,2.36-2.97,4.86-4.59,6.84-26.96,32.93-55.58,67.32-74.82,105.55-.3.6-3.89,6.88-1.31,5.88,7.67-6.48,16.33-11.53,24.53-17.27.51-.36,1.1.3,1.3.28,17.35-.96,35.01.52,52.6-.66,45.77-3.07,122.96-16.39,161.7-40.89,9.55-6.04,28.72-22.1,15.4-33.59s-60.15-12.46-78.31-15.14c-23.52-3.47-56.65-10.69-33.74-40.74,17.46-22.89,60.23-41.49,87.56-49.03,30.43-8.4,65.27-12.7,96.07-4.24-.31,3.99-13.29,20.78-16.01,20.89-.98.04-.69-1.03-.45-1.72,2.04-5.77,9.18-13.18-.39-15.73-30.84-8.21-99.36,12.69-121.06,36.73-12.04,13.33-7.07,23.53,9.02,28.26,24.85,7.3,89.42,6.21,104.98,26.38s-18.83,41.98-33.16,49.72c-58.53,31.63-132.17,42.01-198.05,48.33-.73.07-3.6.3-3.67,1.22,1.24.16,2.75-.2,3.92,0,22.6,3.93,52.94.71,76.14-.65,38.64-2.26,81.62-5.37,118.61-17ZM505.06,270.92l-6.47-11.34c4.56-3.18,11.4-12.87,5.79-17.72s-22.36,3.63-29.3,4.31l-4.01,33.24,10.17-2.57c.48-1.54,1.24-11.32,1.65-11.75.24-.26,4.99-.92,5.83-.4,1.71,1.07,3.22,9,4.96,9.41l11.37-3.19ZM469.11,247.4l-28.6,6.68-6.03,33.18,30.01-5.93.7-7.79-18.28,3.61c1.26-1.3-.02-4.27,1.28-5.26,1.79-1.37,15.7-2.96,16.27-3.66.22-.28.98-6.84.74-7.1l-15.68,3.26c.25-1.39-.36-3.64-.04-4.83.27-1,18.21-3.5,18.92-4.39.25-.3.64-6.65.72-7.77ZM431.77,260.55c-.35-.61-5.14-3-6.27-3.19-14.23-2.4-31.15,5.85-32.66,21.26-2.06,20.99,23.84,13.41,34.94,7.82l3.44-16.81-17.61,2.65-.68,7.15c.95-.8,6.55-1.02,6.54-.32-.39,6.3-13.56,7.69-14.9,1.81-1.29-5.66,2.77-14.44,8.83-15.72,5.02-1.06,8.15,2,10.15,1.7,1.51-.23,9.42-4.26,8.23-6.34ZM382.19,262.44c-.46-.46-12.39,1.07-12.94,1.43-.49.32-4.72,8.68-5.73,10.28-1.71,2.71-3.23,5.02-4.81,7.59-1.01,1.65-10.52,15.96-9.84,16.64,3.03-1.52,8.04.15,10.67-.76,1.67-.58,2.58-5.6,3.48-5.81,3.91.61,9.9-1.65,13.54-.66.92.25.89,4.45,1.06,4.62.42.42,10.01-1.65,11.76-1.31l-7.19-32.01ZM351.48,265.7c-2.24.21-8.76-.56-10.3.8-1.34,1.19-3.1,16.56-5.06,17.49-1.61-2.29-7.42-15.82-8.81-16.67-1.23-.75-11.12-.39-12.28.47-1.91,1.4-6.71,28.42-7.99,32.53,3.61,1.35,7.24-.6,11.11,0,.33-2.33,3.28-17.63,3.93-18.3,1.03-1.04,1.16.43,1.45.85,1.81,2.6,7.48,14.89,9,15.81,1.22.73,10.72.37,11.64-.44,1.25-1.1,5.5-28.68,7.31-32.55ZM214.89,300.99h10.46l5.55-19.61c1.38,2.6.92,19.55,1.63,20.27.27.27,6.66.2,7.56-.61l12.69-19c-.57,3.99-1.61,8.03-2.66,11.91-.13.5-1.11.48-1.23.97-.42,1.77-.16,4.74-.68,6.72h10.46l8.5-33.98h-14.05c-1.84,0-10.22,17.09-12.74,18.95l-1.6-18.34c-.93-1.35-12.3-.31-14.68-.54l-9.21,33.26ZM263.25,301.64h10.78c.86,0,2.79-4.96,3.04-5.12.6-.38,13.77-.61,14.27-.1.19.19,0,4.98,1.06,5.27,2.1.58,8.5-1.67,11.37-.7l-6.26-33.36-12.73.35c-5.59,10.75-13.56,20.1-19.98,30.33-.65,1.04-1.66,2.03-1.55,3.35ZM159.35,291.18c13.27-2.03,26.42-5.22,40.06-4.69,2.98-.75,3.51-9.76.91-9.58-13.2,3.27-25.9,6.06-38.14,12.21-.79.4-2.65,1.18-2.83,2.06Z"/><path d="M263.91,144.8c16.57-14.28,32.5-32.87,49-48.04,18.7-17.19,38.59-33.06,57.52-49.98-2.13.3-4.11-.56-6.18-.69-20.44-1.25-44.67-.33-65.41,0-39.44.62-78.83,3.41-118.23,4.63-3.37.1-7.13.11-10.49-.03-.79-.03-2.43.49-2.28-.65l82.02-8.5c37.78-2.26,75.85-5.23,113.68-5.26,12.54-.01,25.07,1.33,37.61,1.34l-15.68,15.02c5.25-1.06,10.23-3.13,15.41-4.52,36.19-9.72,82.74-13.83,119.22-4.3,3.68.96,21.4,6.47,22.06,9.88.18.92-.91,4.49-1.29,5.66-6.61,20.28-33.48,50.03-50.24,63.48-.91.73-2.03,1.52-3.21,1.7-.51.75,11.63,5.72,12.87,6.4,12.43,6.84,25.83,19.47,27.02,34.41,3.15,39.39-45.81,63.04-77.14,72.89-36.99,11.63-79.97,14.74-118.61,17-23.2,1.36-53.54,4.57-76.14.65,10.65.73,21.15-.65,31.7-1.3,53.06-3.28,112.11-12.46,160.57-34.83,21.37-9.86,71.06-38.77,52.95-68.26-15.53-25.31-78.22-25.65-104.75-31.18-20.59-4.29-14.21-12.48.24-19.43,18.07-8.68,56.41-16.19,75.74-11.47,12.34,3.01,10.29,11.16,4.43,19.76-.1.49.63.42.96.31,2.11-.67,12.44-9.36,14.73-11.42,7.81-7.03,16.71-17,22.74-25.62,1.61-2.3,10-14.08,7.56-15.96-.75-.58-5.61-2.3-6.92-2.73-57.83-19.17-167.58,9.43-204.29,60.1-41.24,56.92,66.71,51.74,95.19,58.8,21.28,5.27,9.63,14.41-2.17,21.8-40.25,25.22-118.02,44.37-165.36,49-9.83.96-20.27.49-29.73,2.62-.19.01-.79-.65-1.3-.28-8.2,5.74-16.86,10.79-24.53,17.27-2.58,1,1.01-5.29,1.31-5.88,19.24-38.23,47.86-72.62,74.82-105.55,1.63-1.99,3.59-4.48,4.59-6.84Z"/><path d="M145.62,104.93c18.62-3.55,37.15-7.22,55.97-9.71,13.82-1.83,28.52-3.63,42.39-4.66,5.62-.42,11.75-.8,17.31-.34-21.27,14.44-40.93,31.87-58.83,50.31-45.13,46.48-80.57,101.64-104.86,161.77l-17.32,43.77c.08-3.14-.14-6.32,0-9.47,2.71-62.11,49.19-137.74,89.84-183.33,9.21-10.33,19.61-19.64,29.09-29.73-8.68-.06-18.18,2.12-26.8,3.92-17.42,3.64-34.48,8.7-51.62,13.4,4.24-31.9,15.11-63.41,33.97-89.53-4.04,17.68-8.19,35.37-9.14,53.59Z"/><path d="M478.26,297.73c-.14.94-2.13,1.64-2.93,1.96-53.8,21.68-133.27,23.19-191.48,28.75-55.67,5.32-120.11,9.82-171.34,32.57-1.13.5-1.13,1.19-2.17-.23,26.83-18.05,57.72-27.68,89.4-33.45,81.97-14.93,168.29-5.8,249.89-22.63,9.67-1.99,19-4.9,28.63-6.98Z"/><path d="M480.22,297.07c.44.23-.38,1.11-1.3.64-.44-.23.38-1.11,1.3-.64Z"/><path class="c" d="M209.01,246.09c9.47-2.13,19.9-1.66,29.73-2.62,47.34-4.63,125.1-23.78,165.36-49,11.8-7.39,23.45-16.53,2.17-21.8-28.47-7.06-136.43-1.88-95.19-58.8,36.71-50.67,146.46-79.27,204.29-60.1,1.31.43,6.17,2.16,6.92,2.73,2.44,1.88-5.95,13.66-7.56,15.96-6.03,8.62-14.93,18.59-22.74,25.62-2.29,2.06-12.61,10.75-14.73,11.42-.33.1-1.07.18-.96-.31,5.86-8.6,7.9-16.74-4.43-19.76-19.33-4.72-57.68,2.78-75.74,11.47-14.46,6.95-20.83,15.14-.24,19.43,26.54,5.53,89.22,5.87,104.75,31.18,18.11,29.5-31.58,58.4-52.95,68.26-48.47,22.37-107.51,31.55-160.57,34.83-10.56.65-21.05,2.03-31.7,1.3-1.17-.2-2.68.15-3.92,0,.08-.92,2.94-1.15,3.67-1.22,65.87-6.32,139.52-16.7,198.05-48.33,14.33-7.75,47.92-30.59,33.16-49.72-15.56-20.17-80.12-19.08-104.98-26.38-16.09-4.73-21.06-14.93-9.02-28.26,21.7-24.04,90.23-44.94,121.06-36.73,9.57,2.55,2.43,9.96.39,15.73-.25.7-.54,1.76.45,1.72,2.72-.11,15.7-16.9,16.01-20.89-30.8-8.46-65.64-4.16-96.07,4.24-27.33,7.54-70.1,26.14-87.56,49.03-22.91,30.05,10.21,37.27,33.74,40.74,18.16,2.68,65.38,3.98,78.31,15.14s-5.85,27.55-15.4,33.59c-38.75,24.5-115.93,37.82-161.7,40.89-17.59,1.18-35.25-.29-52.6.66Z"/><path class="c" d="M214.89,300.99l9.21-33.26c2.38.23,13.75-.81,14.68.54l1.6,18.34c2.52-1.86,10.89-18.95,12.74-18.95h14.05l-8.5,33.98h-10.46c.51-1.99.26-4.95.68-6.72.11-.49,1.09-.47,1.23-.97,1.05-3.89,2.09-7.92,2.66-11.91l-12.69,19c-.9.81-7.29.89-7.56.61-.71-.72-.25-17.67-1.63-20.27l-5.55,19.61h-10.46Z"/><path class="c" d="M351.48,265.7c-1.8,3.87-6.06,31.45-7.31,32.55-.92.81-10.42,1.18-11.64.44-1.52-.92-7.19-13.21-9-15.81-.3-.42-.42-1.9-1.45-.85-.66.67-3.6,15.97-3.93,18.3-3.87-.6-7.5,1.35-11.11,0,1.28-4.11,6.08-31.14,7.99-32.53,1.17-.86,11.05-1.22,12.28-.47,1.39.85,7.2,14.38,8.81,16.67,1.97-.93,3.73-16.3,5.06-17.49,1.54-1.37,8.06-.59,10.3-.8Z"/><path class="c" d="M431.77,260.55c1.19,2.08-6.72,6.11-8.23,6.34-2,.3-5.13-2.76-10.15-1.7-6.06,1.28-10.12,10.06-8.83,15.72,1.34,5.88,14.51,4.49,14.9-1.81,0-.7-5.59-.48-6.54.32l.68-7.15,17.61-2.65-3.44,16.81c-11.1,5.59-36.99,13.17-34.94-7.82,1.51-15.41,18.44-23.66,32.66-21.26,1.13.19,5.92,2.59,6.27,3.19Z"/><path class="c" d="M505.06,270.92l-11.37,3.19c-1.74-.41-3.25-8.34-4.96-9.41-.84-.52-5.59.14-5.83.4-.4.43-1.17,10.22-1.65,11.75l-10.17,2.57,4.01-33.24c6.94-.69,23.68-9.16,29.3-4.31s-1.23,14.53-5.79,17.72l6.47,11.34ZM484.15,257.85c3.27-.06,14.16-3.81,10.82-8.53-.98-1.39-9.59.95-10.06,1.47-.41.46-1.07,6.71-.77,7.07Z"/><path class="c" d="M263.25,301.64c-.1-1.31.9-2.3,1.55-3.35,6.41-10.23,14.39-19.58,19.98-30.33l12.73-.35,6.26,33.36c-2.86-.96-9.27,1.28-11.37.7-1.05-.29-.87-5.07-1.06-5.27-.5-.51-13.66-.28-14.27.1-.25.16-2.19,5.12-3.04,5.12h-10.78ZM289.39,278.12c-1.19-.27-1.28.37-1.84,1.09-.8,1.03-5.87,9.5-5.34,10.01,1.33.08,7.15,0,7.76-.72.95-1.13-1.26-8.39-.58-10.38Z"/><path class="c" d="M469.11,247.4c-.07,1.13-.47,7.47-.72,7.77-.72.89-18.65,3.38-18.92,4.39-.32,1.18.29,3.43.04,4.83l15.68-3.26c.24.26-.51,6.82-.74,7.1-.57.71-14.48,2.3-16.27,3.66-1.3.99-.02,3.96-1.28,5.26l18.28-3.61-.7,7.79-30.01,5.93,6.03-33.18,28.6-6.68Z"/><path class="c" d="M382.19,262.44l7.19,32.01c-1.75-.33-11.34,1.73-11.76,1.31-.17-.17-.13-4.37-1.06-4.62-3.64-.99-9.63,1.27-13.54.66-.9.2-1.81,5.23-3.48,5.81-2.64.91-7.65-.76-10.67.76-.68-.68,8.82-14.99,9.84-16.64,1.57-2.57,3.09-4.88,4.81-7.59,1.01-1.6,5.24-9.96,5.73-10.28.55-.35,12.48-1.89,12.94-1.43ZM367.82,283.99c1.68-.27,6.64.66,7.57-.61.61-.84-1.01-10.05-2.02-10.49l-5.55,11.1Z"/><path class="c" d="M159.35,291.18c.18-.88,2.04-1.66,2.83-2.06,12.24-6.15,24.95-8.94,38.14-12.21,2.6-.18,2.07,8.83-.91,9.58-13.64-.53-26.79,2.66-40.06,4.69Z"/><path class="b" d="M484.15,257.85c-.31-.35.36-6.61.77-7.07.46-.52,9.08-2.85,10.06-1.47,3.33,4.73-7.55,8.47-10.82,8.53Z"/><path class="b" d="M289.39,278.12c-.67,1.99,1.54,9.26.58,10.38-.61.72-6.44.8-7.76.72-.54-.52,4.54-8.98,5.34-10.01.57-.72.65-1.36,1.84-1.09Z"/><path class="b" d="M367.82,283.99l5.55-11.1c1.01.44,2.63,9.65,2.02,10.49-.92,1.27-5.88.34-7.57.61Z"/></svg>